# xmcd
#
# Track frame offsets: 
#        150
#        13457
#        28620
#        40880
#        53122
#        66270
#        78592
#        92302
#        103395
#        115832
#        129780
#        144590
#        156075
#        168680
#        181817
#        196250
#        208975
#        219772
#        234440
#        247330
#        261575
#
# Disc length: 3634 seconds
#
# Revision: 2
# Processed by: cddbd v1.5.2PL0 Copyright (c) Steve Scherf et al.
# Submitted via: ExactAudioCopy v0.95b4
#
DISCID=330e3015
DTITLE=Various Artist - Slick Chicks And Tough Mamas
DYEAR=1999
DGENRE=Blues
TTITLE0=Green, Lil - Why Don't You Do Right 
TTITLE1=Green, Lil - Romance In the Dark
TTITLE2=Jones, Albennie - Love Is Such A Mystery
TTITLE3=Lee, Julia - When A Woman Loves A Man
TTITLE4=Lee, Julia - If It's Good
TTITLE5=White, Georgia - Daddy Let Me Lay It On You
TTITLE6=Lutcher, Nellie - He's A Real Gone Guy
TTITLE7=Lutcher, Nellie - Alexander's Ragtime Band
TTITLE8=Humes, Helen - Ba-baba-leba
TTITLE9=Washington, Dinah - My Lovin' Papa
TTITLE10=Washington, Dinah - Resolution Blues
TTITLE11=Scott, Marilyn - Let's Do the Boogie Woogie
TTITLE12=Memphis Minnie - Me And My Chaffeur Blues
TTITLE13=Memphis Minnie - Daybreak Blues
TTITLE14=Howard, Rosetta - If You're A Viper
TTITLE15=Brown, Cleo - You're My Fever
TTITLE16=Brown, Cleo - Love In the First Degree
TTITLE17=Spivey, Victoria - Hollywood Stomp
TTITLE18=Barker, Louisa "Blue Lu" - New Orleans Blues
TTITLE19=Barker, Louisa "Blue Lu" - Handy Andy
TTITLE20=Hunter, Alberta - He's Got A Punch Like Joe Louis
EXTD=
EXTT0=Lil Green, 1941
EXTT1=LIl Green, 1940
EXTT2=Albennie Jones, 1947
EXTT3=Julia Lee, 1946
EXTT4=Julia Lee, 1945
EXTT5=Georgia White, 1936
EXTT6=Nellie Lutcher, 1947
EXTT7=Nellie Lutcher, 1947
EXTT8=Helen Humes, 1945
EXTT9=Dinah Washington, 1945
EXTT10=Dinah Washington, 1947
EXTT11=Marilyn Scott, 1945
EXTT12=Memphis Minnie, 1941
EXTT13=Memphis Minnie, 1947
EXTT14=Rosetta Howard, 1937
EXTT15=Cleo Brown, 1935
EXTT16=Cleo Brown, 1936
EXTT17=Victoria Spivey, 1936
EXTT18=Blue Lu Barker, 1938
EXTT19=Blue Lu Barker, 1939
EXTT20=Alberta Hunter, 1946
PLAYORDER=
